<svg id="Layer_1" data-name="Layer 1" xmlns="http://www.w3.org/2000/svg" width="6in" height="6in" viewBox="0 0 432 432"><title>candy-logo</title><path d="M129.2,164.6c11.7-22.4,28.9-38.5,52.3-47.6s47.1-9,70.5.2,40.6,25.4,52,47.9l.9-2.2a98.5,98.5,0,0,1,71.9-60.9,88.4,88.4,0,0,1,20.7-1.9,23.1,23.1,0,0,1,3.2.2c3,.5,5.2,2.3,5.9,5.3a39.2,39.2,0,0,0,2.6,7.2,212.7,212.7,0,0,1,13.5,43.9c1.4,7.4,2.6,14.8,3.4,22.2s1.2,12.7,1.3,19.1c.1,3.3.2,6.5.2,9.8,0,4.8-.1,9.5-.4,14.3s-.5,7.2-.8,10.8q-.9,9.9-2.6,19.6a236.3,236.3,0,0,1-9.9,37.8,9.1,9.1,0,0,1-4.3,5.1c-2.5,1.5-5.3,1.8-8.1,2a96.7,96.7,0,0,1-36.3-4.8,97.8,97.8,0,0,1-33.1-18.9A99,99,0,0,1,309,243.9a1.8,1.8,0,0,0-.5-.8c-10.1,26-27.4,45.4-53.1,56.5s-51.7,11.1-77.3.1-43.2-30.3-53.3-56.4c-.4.1-.4.4-.5.7A97.3,97.3,0,0,1,103,271.7a95.9,95.9,0,0,1-47.4,23.8,116.4,116.4,0,0,1-15.3,1.6,50.7,50.7,0,0,1-8.7-.2,5.1,5.1,0,0,0-3,.6c-3.7,1.9-8.1.3-10-3.8a50.8,50.8,0,0,1-1.8-5,233,233,0,0,1-9.3-38.7c-1.1-7.4-1.9-14.9-2.5-22.4a256.9,256.9,0,0,1-.5-26.9,253,253,0,0,1,7.8-55.1,210.2,210.2,0,0,1,13.4-37.2,14.9,14.9,0,0,0,1-3,7.1,7.1,0,0,1,7-5.7,96.1,96.1,0,0,1,41.7,7.8,95.6,95.6,0,0,1,25.4,15.9,100,100,0,0,1,22.5,28.3A107.3,107.3,0,0,1,129.2,164.6Zm-13.6,6.4-.7-2.2a80.4,80.4,0,0,0-4.2-9.5,82.5,82.5,0,0,0-36.2-35.8,82.9,82.9,0,0,0-34-8.9,1.5,1.5,0,0,0-1.7,1,171.6,171.6,0,0,0-10.6,28.1,231.1,231.1,0,0,0-8.8,55c-.3,6.4-.3,12.8-.1,19.2s.7,13,1.4,19.5a229,229,0,0,0,3.7,23.1c1.5,6.9,3.3,13.7,5.4,20.4a1.6,1.6,0,0,0,1.7,1.4l3,.2a84.7,84.7,0,0,0,16.8-1.1A80.1,80.1,0,0,0,93,260.9a83.4,83.4,0,0,0,22.2-33.2,5.3,5.3,0,0,0,.5-1.7l-.9.3a102.5,102.5,0,0,1-17.1,5.1,105.9,105.9,0,0,1-13.8,1.9c-3.4.2-6.7.5-10.1.5a7.3,7.3,0,0,1-5.9-2.6,7,7,0,0,1-1.1-7.6,6.7,6.7,0,0,1,6.2-4.4c5.6-.2,11.2-.5,16.7-1.3a90,90,0,0,0,28.3-9.1,1.2,1.2,0,0,0,.7-1.2,103.5,103.5,0,0,1,1.1-12.9.9.9,0,0,0-.5-1.1,11.6,11.6,0,0,1-2.8-2.2l-3.7-3.5a91.7,91.7,0,0,0-31.8-18.7c-2.9-1-5.8-1.7-8.7-2.7a7.2,7.2,0,0,1-4.6-9,7.3,7.3,0,0,1,8.8-5,108.1,108.1,0,0,1,27.5,11C108,165.7,111.8,168.3,115.6,170.9Zm203.6-4.3a1.3,1.3,0,0,0,.9-.4A106.3,106.3,0,0,1,358,149.4a7.3,7.3,0,0,1,7.6,3.4,7.5,7.5,0,0,1-.7,8.6,9.7,9.7,0,0,1-5.3,2.7,92.8,92.8,0,0,0-41.1,22.3,46,46,0,0,1-4.6,4.2,1.7,1.7,0,0,0-.7,1.5c0,2.6.5,5.1.7,7.6a1.9,1.9,0,0,0,1.3,1.7c13.7,6.5,28.2,9.2,43.3,8.9a14.3,14.3,0,0,1,2.4,0c4.1.6,6.6,3.5,6.6,7.4a7.3,7.3,0,0,1-6.7,7.1,41.3,41.3,0,0,1-7.8.2c-4.3-.3-8.6-.5-12.9-1a105.9,105.9,0,0,1-24.1-6.3c-.3-.1-.5-.4-.9-.1v.4a83.9,83.9,0,0,0,19.3,36.9,82.3,82.3,0,0,0,36,23.6,84.2,84.2,0,0,0,28.9,3.9c1.7,0,1.7,0,2.3-1.7a219,219,0,0,0,9.3-41,241.4,241.4,0,0,0,2-24.5c.2-5.9.2-11.8-.1-17.7s-.7-12.1-1.4-18.1a231.1,231.1,0,0,0-4.1-24.8,191.6,191.6,0,0,0-12.8-38.9,1.2,1.2,0,0,0-1.4-.9,95.5,95.5,0,0,0-12.7,1.4,82.2,82.2,0,0,0-40.6,20.6A84,84,0,0,0,320.8,163ZM133.8,215.2a46.9,46.9,0,0,0,1,8.3,85.6,85.6,0,0,0,6.1,20.3,83.1,83.1,0,0,0,34.8,38.4,79.8,79.8,0,0,0,37.8,10.7,75.2,75.2,0,0,0,9.4-.2,91.5,91.5,0,0,0,10.3-1.2,83.3,83.3,0,0,0,28.6-11.8c1-.6,1-.6.1-1.5L148.1,164.4l-.6-.6c-.4-.5-.7-.4-1,.1l-2.1,3.6a75.4,75.4,0,0,0-6.2,13.4,86,86,0,0,0-4.5,20.5,38.3,38.3,0,0,0-.3,7.3A28.2,28.2,0,0,1,133.8,215.2Zm164.4-14.2c0-3.5.2-6.2-.3-8.8A83.3,83.3,0,0,0,276.6,151a81.8,81.8,0,0,0-30.7-20.5,79.4,79.4,0,0,0-24.6-5.3,83.4,83.4,0,0,0-14.9.5,84.9,84.9,0,0,0-17.6,4.2c-1,.3-1,.4-.2,1.1l17.1,17.1L294,236.5c.8.8.8.8,1.2-.3a77.4,77.4,0,0,0,3.8-16.2,26.1,26.1,0,0,0,.3-6.5C298.7,209.1,297.8,204.7,298.2,200.9Zm-24.1,68.5c.4-.1.6-.4.8-.6a85.2,85.2,0,0,0,12.8-16.3,1.3,1.3,0,0,0-.3-1.9l-40.7-40.7-72-72c-.7-.7-1.1-.8-2-.3a88.1,88.1,0,0,0-16.1,13.2c-.5.5-.4.8.1,1.3l11.1,11.1L239.7,235l33.8,33.8Z" fill="#fff" stroke="#fff" stroke-miterlimit="10" stroke-width="7.24"/></svg>