<svg id="Layer_1" data-name="Layer 1" xmlns="http://www.w3.org/2000/svg" xmlns:xlink="http://www.w3.org/1999/xlink" width="6in" height="6in" viewBox="0 0 432 432"><defs><clipPath id="clip-path"><rect x="13.5" width="418.5" height="432" fill="none"/></clipPath></defs><title>Artboard 1</title><g clip-path="url(#clip-path)"><path d="M362.3,25c-38.8-6.7-78.4-3-108.9,24.2,1.6-21.8-1.6-51.8-22.6-64.1-5.9-3.5-12.6-5.2-18.7-8.3s-36-35.5-43.1-32.2-15.2,15-19.8,21.2c-7.2,9.7-7.4,19.7-7.4,31.3-.1,27-27.2,22.3-46.6,22.6-10.8.1-6,20.9-6.4,27.3-.5,8.4-2.7,16.6-10.4,21-4.3,2.5-9.3,3.7-14.2,4.5S51.3,72.5,48.4,77c-7,11.1,8.7,19.4,15.6,23.7,13.1,8.2,25.7,17.2,38,26.6,10.6,8.2,20.4,17.9,33.4,22.2,22.4,7.4,46.7-.5,65.8-12.6-13.9,54.6,3.1,103.4,36.7,146.7,26.4,33.9,58.6,63.9,90.2,93,5.8,5.4,12.3,11.4,19.9,14.3,10.3,3.9,20.9-10,26.8-16.7,21.9-25.1,42.8-51.6,63-78.1s86.1-128.8,93.5-163.8c2.8-13.1,4.2-24.5-6.4-33.9C508.5,84.4,409.4,33.2,362.3,25ZM148.1,130.6c-16-1.9-32.7-16.7-40.2-23.9l-5-4.8A81.9,81.9,0,0,0,87.3,90.6c19.4-7.2,20-31.5,19.3-49.1,13.4.2,36.6,2.4,45.6-10.3,4.4-6.3,5.7-16.9,6.5-24.4a91.5,91.5,0,0,0,.3-15.2c0,.3-.9-4.9-1.3-4.4,4.4-6.3,12.1-12.3,17.4-18.1,9.1,8.3,16.5,19.6,27.5,25.6s20.5,9.8,27.1,20.6c11.6,19,5.4,43.2-4.4,61.5-.7-11.3-5.5-24.9-13.2-33.5-3.7-4.2-7.7-8.4-13.1-10.5-10-3.9-5,5.8-1.9,9.8,6.4,8.3,11.4,18.4,14.9,28.2,2.3,4.9,8.2,15,5,19.5-1.3,1.8-2.6,3.6-4,5.3-3.5-.8-7.1-1.5-10.7-2.2-5.4-1.1-10.7-2.8-16.2-4-12.5-1.4-27-7.8-38.5-12.5-6-2.4-12-5-18-7.3-9.8-3.8-7.1,3.7-1.9,8.2C138.4,87.1,152.5,93,165.8,97c5.5,1.6,11.3,3.9,17.1,4.2s10.4,1.7,15.6,1.7c1.4,0,7-1,8.3-.2C192.4,118.4,170.6,133.3,148.1,130.6Zm83.3-15.2c10.1-20.4,23.1-40.8,41.9-54.2C302.9,40,345.5,41.7,382.4,50.5c4.5,1.3,8.9,3,13.3,4.5-20,5.3-38.9,18.6-56.5,29-12.4,7.3-24.1,15.8-36,23.9S279,124,267,132.4c-19.7,13.8-42.1,31-53,53C213.4,161,220.7,137,231.4,115.4Zm-16.4,83.1c-.1,1.1-.4-.3-.9-8,5.5-3.2,9.4-9.5,14-13.8a208.9,208.9,0,0,1,18.1-14.8c11.8-8.9,24.1-17.2,36.5-25.2s27.6-17.9,41.3-27.2c17-11.6,33.8-23.7,51.2-34.6l17.2-10.8c3.4-2.1,7.1-3.9,10-6.6l15,5.8c18.7,7.6,36.7,16.6,54.9,25.3-11.5,5.4-21.7,16.4-31.8,24.2l-28.7,21.5c-17.1,12.9-35.2,25.8-53.3,37.2s-35.4,22.9-53.6,33.6c-13.3,7.8-26.5,15.9-40,23.3-9.2,5.1-22.9,10.1-30.1,17.8A105.9,105.9,0,0,1,215.1,198.4ZM407.3,301.7l-32,38.6-16,19.3c-2.3,2.8-4.7,8.2-9.1,7.7-8.2-.9-16.4-9.5-22.1-14.7-11.1-10.1-21.4-21.2-31.4-32.3,5.9,2.3,19.6-5.5,24.7-8,11.6-5.5,23.3-11,34.8-16.6a424.2,424.2,0,0,0,54.6-32.2,633.1,633.1,0,0,0,53.3-40.8A698.5,698.5,0,0,1,407.3,301.7ZM514.8,119.4c-3-4.6-27.2-16.4-26.5-3,.2,5.2,21.5,12.8,26,11.7a78.4,78.4,0,0,1-4.9,12.9c-2.9-4.4-28.2-21.1-29.6-7.5-.5,4.7,7.7,7.4,11.2,8.9s5.3,3,8.1,4.5,3.9,2.1,5.6,3.6l-4.4,8.2c-4.1-4-9.7-7.2-15.5-4.3-9.5,4.8,6.1,13.1,9.7,14.6l-4.5,7.9c-4-3.4-21.6-6.4-17.5,3.7,1.2,2.8,4.9,3.4,7.1,5.2s3,1.4,4.2,2.2c-2.1,3.9-3.5,7.2-6.9,10.1-17.2,14.8-36,27.8-54.4,41.1s-35.8,24.4-54.1,36.3c-13.8,9-28.4,16.6-42.6,24.9-3.6,2.1-7.1,4.2-10.6,6.4s-18.9,8.4-19.1,12.8c-20.9-23.2-41.3-47.3-60.2-72.2,12.6-.1,26.6-8.9,37.7-14,13.7-6.3,27.1-13.2,40.3-20.5,17.8-9.7,34.9-20.7,52.2-31.3,19.3-11.8,38.4-26.2,55.8-40.7,8.5-7.1,17.1-14.2,25.4-21.6s24.4-18.5,27-30C487.2,95.4,512.1,107.9,514.8,119.4Z" fill="#26d4ee"/><path d="M291.2,191c-.3-2,.1-1,0,0,.7-8.1-11-8.1-11.6-.4S292.2,198.3,291.2,191Z" fill="#26d4ee"/><path d="M295.5,156.2c3.4-7.3-7-11.4-11.5-5.9S291.8,164.3,295.5,156.2Z" fill="#26d4ee"/><path d="M320.8,142.3c.7-8.1-11-8.1-11.6-.4S320,150.9,320.8,142.3Z" fill="#26d4ee"/><path d="M339.1,156.3c.5-.6.9-1.2,0,0-2.6,3.4,3.1,10.2,7.1,5S342.7,151.7,339.1,156.3Z" fill="#26d4ee"/><path d="M320.4,175.2h0c.4-2,.2-1,0,0,1.5-7.9-9.7-9.3-12.7-2.8C304,180.4,318.7,184,320.4,175.2Z" fill="#26d4ee"/><path d="M256.9,213.2c3.4-7-7.5-11.8-10.8-4.8S253.8,219.8,256.9,213.2Z" fill="#26d4ee"/><path d="M339.8,335.8c-3.1,7.6,8.7,11.9,11.8,4.3S342.7,328.7,339.8,335.8Z" fill="#26d4ee"/><path d="M366.8,312.8c-5.1,3.5.6,11.1,5.6,7.6S371.5,309.5,366.8,312.8Z" fill="#26d4ee"/><path d="M414,97.5c3.8-7.3-7.7-11.6-11.3-4.5S409.6,106.2,414,97.5Z" fill="#26d4ee"/></g></svg>